<?xml version="1.0" encoding="utf-8"?>
<!-- Generator: Adobe Illustrator 23.0.3, SVG Export Plug-In . SVG Version: 6.00 Build 0)  -->
<svg fill="#d5d5ff" version="1.1" id="Layer_1" xmlns="http://www.w3.org/2000/svg" xmlns:xlink="http://www.w3.org/1999/xlink" x="0px" y="0px"
	 viewBox="0 0 56 56" style="enable-background:new 0 0 56 56;" xml:space="preserve">
<style type="text/css">
	.st0{fill:#FFFFFF;stroke:#191919;stroke-width:2;stroke-linecap:round;stroke-linejoin:round;}
	.st1{fill:none;stroke:#191919;stroke-width:2;stroke-linecap:round;stroke-linejoin:round;}
</style>
<path d="M28,0L28,0c15.5,0,28,12.5,28,28l0,0c0,15.5-12.5,28-28,28l0,0C12.5,56,0,43.5,0,28l0,0C0,12.5,12.5,0,28,0z"/>
<path class="st0" d="M17.7,20.1c0-1.2,1.1-2.3,2.3-2.3h15.9c1.2,0,2.3,1.1,2.3,2.3V36c0,1.2-1.1,2.3-2.3,2.3H20.1
	c-1.2,0-2.3-1.1-2.3-2.3V20.1H17.7z"/>
<path class="st1" d="M38.3,11v2.3"/>
<path class="st1" d="M45,17.7h-2.3"/>
<path class="st1" d="M38.3,45v-2.3"/>
<path class="st1" d="M45,38.3h-2.3"/>
<path class="st1" d="M17.7,45v-2.3"/>
<path class="st1" d="M11,38.3h2.3"/>
<path class="st1" d="M11,17.7h2.3"/>
<path class="st1" d="M17.7,11v2.3"/>
</svg>
