<?xml version="1.0" encoding="utf-8"?>
<!-- Generator: Adobe Illustrator 23.0.3, SVG Export Plug-In . SVG Version: 6.00 Build 0)  -->
<svg fill="#beebf6" version="1.1" id="Layer_1" xmlns="http://www.w3.org/2000/svg" xmlns:xlink="http://www.w3.org/1999/xlink" x="0px" y="0px"
	 viewBox="0 0 56 56" style="enable-background:new 0 0 56 56;" xml:space="preserve">
<style type="text/css">
	.st0{fill:none;stroke:#191919;stroke-width:2;stroke-linecap:round;stroke-linejoin:round;}
	.st1{fill:#FFFFFF;stroke:#191919;stroke-width:2;stroke-linecap:round;stroke-linejoin:round;}
</style>
<path d="M28,0L28,0c15.5,0,28,12.5,28,28l0,0c0,15.5-12.5,28-28,28l0,0C12.5,56,0,43.5,0,28l0,0C0,12.5,12.5,0,28,0z"/>
<path class="st0" d="M24.3,40.6h-9.1c-1.2,0-2.3-1-2.3-2.2V14.2c0-1.2,1.1-2.2,2.3-2.2h16c0.6,0,1.2,0.3,1.7,0.6l4.4,4.2
	c0.5,0.4,0.6,1,0.6,1.6V23"/>
<path class="st1" d="M36,44c5,0,9-3.9,9-8.7s-4-8.7-9-8.7s-9,3.9-9,8.7C27,40.2,31,44,36,44z"/>
<path class="st0" d="M36,30.9v8.7"/>
<path class="st0" d="M31.5,35.3h9"/>
</svg>
