<?xml version="1.0" encoding="utf-8"?>
<!-- Generator: Adobe Illustrator 23.0.3, SVG Export Plug-In . SVG Version: 6.00 Build 0)  -->
<svg fill="#fff48a" version="1.1" id="Layer_1" xmlns="http://www.w3.org/2000/svg" xmlns:xlink="http://www.w3.org/1999/xlink" x="0px" y="0px"
	 viewBox="0 0 56 56" style="enable-background:new 0 0 56 56;" xml:space="preserve">
<style type="text/css">
	.st0{fill:#FFFFFF;stroke:#191919;stroke-width:2;stroke-linecap:round;stroke-linejoin:round;}
	.st1{fill:none;stroke:#191919;stroke-width:2;stroke-linecap:round;stroke-linejoin:round;}
</style>
<path d="M28,0L28,0c15.5,0,28,12.5,28,28l0,0c0,15.5-12.5,28-28,28l0,0C12.5,56,0,43.5,0,28l0,0C0,12.5,12.5,0,28,0z"/>
<path class="st0" d="M18.4,10h20c1,0,1.6,0.6,1.6,1.6v32.8c0,1-0.6,1.6-1.6,1.6H20.6c-2.6,0-4.6-2.1-4.6-4.6V12.2
	C16.2,11,17.1,10,18.4,10z"/>
<path class="st1" d="M18.9,10c9.4,0.8,21.3,8,21.3,21.9c0,9.8-6.7,13.4-13.1,14.1"/>
<path class="st1" d="M23.8,31.8c0.6,0.3,1.3,0.6,1.8,1.1c0.8,0.8,1.3,1.8,1.3,2.9c0,1.1-0.5,2.1-1.3,2.9c-1.3,1.3-3.4,1.3-4.8,0"/>
<path class="st1" d="M40.2,31.8h-24"/>
<path class="st1" d="M26.9,31.8v14.1"/>
</svg>
