<?xml version="1.0" encoding="utf-8"?>
<!-- Generator: Adobe Illustrator 23.0.3, SVG Export Plug-In . SVG Version: 6.00 Build 0)  -->
<svg fill="#ffd6b0" version="1.1" id="Layer_1" xmlns="http://www.w3.org/2000/svg" xmlns:xlink="http://www.w3.org/1999/xlink" x="0px" y="0px"
	 viewBox="0 0 56 56" style="enable-background:new 0 0 56 56;" xml:space="preserve">
<style type="text/css">
	.st0{fill:#FFFFFF;stroke:#191919;stroke-width:2;stroke-linecap:round;stroke-linejoin:round;}
	.st1{fill:none;stroke:#191919;stroke-width:2;stroke-linecap:round;stroke-linejoin:round;}
	.st2{stroke:#191919;stroke-width:2;stroke-linecap:round;stroke-linejoin:round;}
</style>
<path d="M28,0L28,0c15.5,0,28,12.5,28,28l0,0c0,15.5-12.5,28-28,28l0,0C12.5,56,0,43.5,0,28l0,0C0,12.5,12.5,0,28,0z"/>
<path class="st0" d="M42.7,41.9c0,1.1-1,2.1-2.1,2.1H15.1C14,44,13,43,13,41.9V14.1c0-1.1,1-2.1,2.1-2.1h21.2c0.6,0,1.1,0.3,1.4,0.6
	l4.2,4.1c0.4,0.4,0.7,1,0.7,1.6V41.9z"/>
<path class="st1" d="M19,19.7c0-0.3,0.3-0.7,0.8-0.7h15.8c0.5,0,0.8,0.3,0.8,0.8v10.8c0,0.5-0.3,0.8-0.8,0.8H19.8
	C19.3,31.3,19,31,19,30.7V19.7z"/>
<path class="st2" d="M28,32v7"/>
<path class="st2" d="M22.8,39l5-5"/>
<path class="st2" d="M33,39l-5-5"/>
</svg>
