<?xml version="1.0" encoding="utf-8"?>
<!-- Generator: Adobe Illustrator 23.0.3, SVG Export Plug-In . SVG Version: 6.00 Build 0)  -->
<svg fill="#d2fae6" version="1.1" id="Layer_1" xmlns="http://www.w3.org/2000/svg" xmlns:xlink="http://www.w3.org/1999/xlink" x="0px" y="0px"
	 viewBox="0 0 56 56" style="enable-background:new 0 0 56 56;" xml:space="preserve">
<style type="text/css">
	.st0{fill:#FFFFFF;stroke:#191919;stroke-width:2;stroke-linecap:round;stroke-linejoin:round;}
	.st1{fill:none;stroke:#191919;stroke-width:2;stroke-linecap:round;stroke-linejoin:round;}
</style>
<path d="M28,0L28,0c15.5,0,28,12.5,28,28l0,0c0,15.5-12.5,28-28,28l0,0C12.5,56,0,43.5,0,28l0,0C0,12.5,12.5,0,28,0z"/>
<path class="st0" d="M38.6,22.4c0,3.3,1.6,5.1,5.4,5.2c-3.4,0-5.1,1.8-5.4,5.2c0-3.2-1.6-5.2-5.4-5.2C36.8,27.5,38.6,26,38.6,22.4z"
	/>
<path class="st0" d="M27,13.1c0,4.5,2.3,7.2,7.5,7.3c-4.8,0-7.2,2.5-7.5,7.3c0-4.7-2.1-7.4-7.5-7.4C24.3,20.3,27,18,27,13.1z"/>
<path class="st1" d="M12.1,39.2v3.2c0,0.8,0.7,1.7,1.7,1.7h3.3"/>
<path class="st1" d="M17.1,13.1h-3.4c-0.8,0-1.7,0.7-1.7,1.7V18"/>
<path class="st1" d="M43.9,18v-3.3c0-0.8-0.7-1.7-1.7-1.7h-3.3"/>
<path class="st1" d="M38.9,44h3.3c0.8,0,1.7-0.7,1.7-1.7v-3.2"/>
<path class="st1" d="M34.5,36c-2.5,3.4-7.1,4.8-11.2,3.4c-4.1-1.2-6.9-5-6.9-9.2c0-1.9,0.6-3.9,1.7-5.4"/>
</svg>
