<?xml version="1.0" encoding="utf-8"?>
<!-- Generator: Adobe Illustrator 23.0.3, SVG Export Plug-In . SVG Version: 6.00 Build 0)  -->
<svg fill="#d5d5ff" version="1.1" id="Layer_1" xmlns="http://www.w3.org/2000/svg" xmlns:xlink="http://www.w3.org/1999/xlink" x="0px" y="0px"
	 viewBox="0 0 56 56" style="enable-background:new 0 0 56 56;" xml:space="preserve">
<style type="text/css">
	.st0{fill:none;stroke:#191919;stroke-width:2;stroke-linecap:round;stroke-linejoin:round;}
	.st1{fill:#FFFFFF;stroke:#191919;stroke-width:2;stroke-linecap:round;stroke-linejoin:round;}
</style>
<path d="M28,0L28,0c15.5,0,28,12.5,28,28l0,0c0,15.5-12.5,28-28,28l0,0C12.5,56,0,43.5,0,28l0,0C0,12.5,12.5,0,28,0z"/>
<path class="st0" d="M41.8,22.5v10.7"/>
<path class="st0" d="M19.3,14.8l19.2,3.8"/>
<path class="st0" d="M16.2,37.6V18.3"/>
<path class="st0" d="M38.7,37.2L19.3,41"/>
<path class="st1" d="M13.1,12.7c0-0.4,0.3-0.7,0.7-0.7h4.8c0.4,0,0.7,0.3,0.7,0.7v4.8c0,0.4-0.3,0.7-0.7,0.7h-4.8
	c-0.4,0-0.7-0.3-0.7-0.7V12.7z"/>
<path class="st1" d="M38.7,17c0-0.4,0.4-0.9,0.9-0.9h4.8c0.4,0,0.9,0.4,0.9,0.9v4.8c0,0.4-0.4,0.9-0.9,0.9h-4.8
	c-0.4,0-0.9-0.4-0.9-0.9V17z"/>
<path class="st1" d="M38.7,34c0-0.4,0.4-0.9,0.9-0.9h4.8c0.4,0,0.9,0.4,0.9,0.9v4.8c0,0.4-0.4,0.9-0.9,0.9h-4.8
	c-0.4,0-0.9-0.4-0.9-0.9V34z"/>
<path class="st1" d="M13.1,38.3c0-0.4,0.4-0.9,0.9-0.9h4.8c0.4,0,0.9,0.4,0.9,0.9v4.8c0,0.4-0.4,0.9-0.9,0.9h-5
	c-0.4,0-0.9-0.4-0.9-0.9v-4.8H13.1z"/>
</svg>
